<svg xmlns="http://www.w3.org/2000/svg" xmlns:xlink="http://www.w3.org/1999/xlink" width="181" height="44.631" viewBox="0 0 181 44.631">
  <defs>
    <clipPath id="clip-path">
      <rect id="Rect치ngulo_3643" data-name="Rect치ngulo 3643" width="181" height="44.631" fill="none"/>
    </clipPath>
  </defs>
  <g id="Grupo_24327" data-name="Grupo 24327" transform="translate(0 0)">
    <g id="Grupo_24326" data-name="Grupo 24326" transform="translate(0 0)" clip-path="url(#clip-path)">
      <path id="Trazado_12774" data-name="Trazado 12774" d="M71.713,31.44c-6.612,0-10.56-4.71-10.56-12.6,0-7.654,3.723-12.225,9.959-12.225a8.411,8.411,0,0,1,7.177,3.535,13.591,13.591,0,0,1,2.177,7.9V20.28H64.592c.174,5.334,2.675,8.149,7.26,8.149a12.262,12.262,0,0,0,6.927-2.442l.6-.413,1.251,2.813-.449.277a16.226,16.226,0,0,1-8.467,2.777m5.314-14.172c-.107-3.12-1.108-7.683-6.054-7.683-4.469,0-6.206,4.009-6.375,7.683Z" transform="translate(49.534 5.361)" fill="#0ac3cc"/>
      <path id="Trazado_12775" data-name="Trazado 12775" d="M79.993,33.553c-3.444,0-5.419-1.841-5.419-5.048V5.145L78,4.01V28.226c0,1.685.617,2.324,2.281,2.36l2.118.007v2.959Z" transform="translate(60.405 3.248)" fill="#0ac3cc"/>
      <path id="Trazado_12776" data-name="Trazado 12776" d="M88.511,31.439c-4.581,0-7.781-3.046-7.781-7.41,0-4.284,3.213-6.947,8.384-6.947h5.832V15.555c0-4.176-1.461-5.879-5.044-5.879a16.343,16.343,0,0,0-6.7,1.475l-.586.266L81.539,8.566l.523-.23a19.259,19.259,0,0,1,8.163-1.72c5.225,0,8.1,3.026,8.1,8.521v16.3H95.085V28.826a9.9,9.9,0,0,1-6.574,2.614m.88-11.39c-4.73,0-5.278,2.219-5.278,3.888,0,2.071.843,4.538,4.862,4.538.1,0,.208,0,.31-.009,3.2-.165,5.662-1.993,5.662-6.114v-2.3Z" transform="translate(65.391 5.36)" fill="#0ac3cc"/>
      <path id="Trazado_12777" data-name="Trazado 12777" d="M101.308,33.553c-2.214,0-5.928-.849-5.928-6.53l0-15.38H91.907V8.768h3.472l0-3.624L98.856,4.01V8.768H105.8v2.874H98.856v15.38c0,2.9,1,3.472,2.729,3.472a8.271,8.271,0,0,0,3.406-.939l.634-.362.93,2.717-.337.264a9.745,9.745,0,0,1-4.911,1.379" transform="translate(74.445 3.248)" fill="#0ac3cc"/>
      <rect id="Rect치ngulo_3642" data-name="Rect치ngulo 3642" width="3.522" height="24.783" transform="translate(81.327 12.017)" fill="#0ac3cc"/>
      <path id="Trazado_12778" data-name="Trazado 12778" d="M53,26.251h-.009V6.654H49.642l.051,19.6a1.838,1.838,0,0,1-3.595.51c-.136-.291-7.866-16.817-7.866-16.817l-.007,0a5.12,5.12,0,0,0-9.9,1.83v.011h.009v19.6h3.345l-.051-19.6a1.838,1.838,0,0,1,3.595-.51c.163.351,7.866,16.815,7.866,16.815l.007,0A5.119,5.119,0,0,0,53,26.26Z" transform="translate(22.941 5.39)" fill="#0ac3cc"/>
      <path id="Trazado_12779" data-name="Trazado 12779" d="M36.524,0H8.107A8.107,8.107,0,0,0,0,8.107V36.524a8.106,8.106,0,0,0,8.107,8.107h.626V16.981H8.722l0-.011a5.658,5.658,0,0,1,10.943-2.022l.009,0s8.541,18.257,8.692,18.58a2.03,2.03,0,0,0,3.971-.563l-.052-19.805a1.845,1.845,0,1,1,3.691,0V32.964h.011v.011a5.657,5.657,0,0,1-10.941,2.02l-.009,0L16.342,16.419a2.03,2.03,0,0,0-3.971.563l.051,27.65h24.1a8.107,8.107,0,0,0,8.107-8.107V8.107A8.109,8.109,0,0,0,36.524,0M40.11,10.826a1.41,1.41,0,0,1-1.991.083l-3.182-2.93a1.213,1.213,0,0,0-1.692,0l-3.182,2.93a1.409,1.409,0,0,1-1.908-2.074l4.111-3.787.04-.034a2.693,2.693,0,0,1,3.571,0l.04.034,4.111,3.787a1.408,1.408,0,0,1,.083,1.991" transform="translate(0 0)" fill="#0ac3cc"/>
      <path id="Trazado_12780" data-name="Trazado 12780" d="M57.093,31.447,49.209,6.639h3.725L59.339,27.5,65.7,6.639h3.682L61.4,31.447Z" transform="translate(39.859 5.378)" fill="#0ac3cc"/>
    </g>
  </g>
</svg>
